<?xml version="1.0" encoding="utf-8"?>
<!-- Generator: Adobe Illustrator 23.0.3, SVG Export Plug-In . SVG Version: 6.00 Build 0)  -->
<svg version="1.1" id="Layer_1" xmlns="http://www.w3.org/2000/svg" xmlns:xlink="http://www.w3.org/1999/xlink" x="0px" y="0px"
	 viewBox="0 0 234 266.4" style="enable-background:new 0 0 234 266.4;" xml:space="preserve">
<style type="text/css">
	.st0{fill:#FFFFFF;}
</style>
<rect x="0.09" width="234" height="266.4"/>
<g>
	<path class="st0" d="M207.31,77.71c-5.33,0-10.57,0-15.86,0c0,12.65,0,25.27,0,37.93c5.38,0,10.74,0,16.24,0
		c-0.59-0.28-1.07-0.49-1.54-0.72c-0.72-0.35-1.43-0.7-2.14-1.07c-0.76-0.39-1.09-1.3-0.74-1.96c0.4-0.74,1.21-1,2-0.57
		c2.13,1.16,4.33,2.18,6.66,2.81c2.4,0.64,4.85,1.05,7.29,1.53c0.95,0.19,1.3,0.56,1.28,1.46c-0.02,0.79-0.56,1.36-1.39,1.41
		c-3.07,0.18-6.01,0.93-8.86,2.01c-1.63,0.61-3.17,1.44-4.78,2.12c-0.41,0.18-0.93,0.28-1.36,0.2c-0.51-0.1-0.91-0.49-0.96-1.09
		c-0.05-0.63,0.14-1.17,0.71-1.46c1.05-0.55,2.13-1.06,3.2-1.58c0.06-0.03,0.12-0.07,0.28-0.16c-5.36,0-10.6,0-15.91,0
		c-0.01,0.22-0.03,0.43-0.03,0.64c0,3.55,0,7.11,0,10.66c0,1.3-0.43,1.74-1.71,1.74c-38.74,0-77.48,0-116.22,0
		c-0.24,0-0.48-0.02-0.72-0.04c-0.63-0.07-0.96-0.39-1.01-1.04c-0.03-0.32-0.04-0.64-0.04-0.96c0-3.43,0-6.87,0-10.3
		c0-0.21,0-0.43,0-0.72c-0.32,0-0.57,0-0.83,0c-8.79,0-17.57,0-26.36,0c-0.26,0-0.52,0-0.77-0.05c-0.56-0.11-0.69-0.37-0.67-1.45
		c0.01-0.55-0.09-1.17,0.68-1.32c0.25-0.05,0.52-0.05,0.77-0.05c8.79,0,17.57,0,26.36,0c0.24,0,0.48,0,0.77,0
		c0-12.66,0-25.29,0-37.99c-0.27,0-0.52,0-0.77,0c-8.79,0-17.57,0-26.36,0c-0.26,0-0.52,0-0.77-0.05c-0.57-0.11-0.69-0.37-0.68-1.44
		c0.01-0.55-0.09-1.17,0.68-1.32c0.25-0.05,0.52-0.05,0.77-0.05c8.77,0,17.53,0,26.3,0c0.26,0,0.52,0,0.85,0
		c0.01-0.24,0.03-0.45,0.03-0.66c0-3.55,0-7.11,0-10.66c0-0.14-0.01-0.28,0-0.42c0.07-1.16,0.4-1.46,1.56-1.45
		c0.48,0.01,0.96,0.01,1.44,0.01c38.08,0,76.16,0,114.24,0c0.46,0,0.92,0.01,1.37,0.04c0.58,0.04,0.9,0.4,1,0.94
		c0.06,0.29,0.07,0.59,0.07,0.89c0,3.49,0,6.99,0,10.48c0,0.24,0,0.48,0,0.77c5.4,0,10.76,0,16.19,0c-0.15-0.09-0.28-0.18-0.42-0.25
		c-1.05-0.51-2.12-1.01-3.16-1.54c-0.74-0.37-1.07-1.25-0.75-1.91c0.36-0.76,1.23-1.04,2.05-0.6c2.33,1.25,4.73,2.34,7.29,2.99
		c2.19,0.56,4.44,0.92,6.66,1.35c0.93,0.18,1.3,0.57,1.27,1.47c-0.02,0.76-0.55,1.35-1.35,1.39c-2.28,0.11-4.49,0.62-6.67,1.26
		c-2.4,0.71-4.71,1.64-6.92,2.82c-0.42,0.22-1,0.32-1.46,0.24c-0.5-0.09-0.9-0.5-0.95-1.09c-0.05-0.63,0.15-1.16,0.73-1.46
		C204.99,78.87,206.11,78.32,207.31,77.71z M74.63,64.53c0,21.43,0,42.8,0,64.17c38.02,0,75.99,0,113.97,0c0-21.41,0-42.78,0-64.17
		C150.59,64.53,112.64,64.53,74.63,64.53z"/>
	<path class="st0" d="M27.15,102.52c0.39-1.54,0.76-2.98,1.12-4.42c1.2-4.78,2.4-9.56,3.61-14.33c0.13-0.51,0.35-0.92,0.94-1.02
		c1.07-0.17,1.65,0.42,1.4,1.51c-0.57,2.4-1.19,4.78-1.79,7.17c-0.89,3.55-1.78,7.09-2.67,10.64c-0.03,0.13-0.04,0.27-0.06,0.45
		c1.35-0.24,2.39-0.96,3.31-1.83c1.32-1.25,2.25-2.77,2.67-4.57c0.23-0.98-0.05-1.8-0.73-2.51c-0.76-0.78-0.87-1.62-0.35-2.47
		c0.72-1.19,1.84-1.33,2.67-1c0.9,0.36,1.39,1.21,1.37,2.2c-0.06,3.41-0.82,6.59-3.23,9.17c-0.61,0.65-1.25,1.27-1.95,1.82
		c-1.26,1-2.73,1.51-4.39,1.58c-0.34,1.32-0.67,2.64-1.01,3.96c-0.06,0.25-0.11,0.51-0.2,0.75c-0.29,0.8-0.9,1.09-1.7,0.83
		c-0.55-0.18-0.78-0.73-0.6-1.5c0.34-1.37,0.69-2.73,1.04-4.12c-0.65-0.19-1.3-0.31-1.9-0.56c-2.22-0.9-3.4-3.06-2.83-5.42
		c0.41-1.69,1.05-3.32,1.58-4.97c0.15-0.48,0.27-0.98,0.43-1.58c-0.74,0.17-1.08,0.63-1.31,1.11c-0.34,0.69-0.61,1.42-0.86,2.14
		c-0.19,0.57-0.57,0.84-1.14,0.88c-0.74,0.05-1.21-0.34-1.19-1.08c0.04-1.23,0.58-2.29,1.24-3.3c0.52-0.79,1.15-1.53,2.06-1.83
		c1.24-0.4,2.5-0.4,3.53,0.56c1.08,1.01,1.22,2.28,0.81,3.63c-0.48,1.55-1.08,3.06-1.53,4.61c-0.28,0.99-0.35,2.04,0.55,2.82
		C26.33,102.12,26.72,102.28,27.15,102.52z"/>
	<path class="st0" d="M48.27,96.56c-0.24,0.68-0.49,1.41-0.76,2.12c-1.54,4.02-3.08,8.04-4.62,12.07c-0.37,0.98-1.11,1.34-2.03,0.98
		c-0.67-0.26-0.97-1.18-0.65-2c1.66-4.33,3.33-8.67,4.98-13.01c0.07-0.18,0.06-0.43-0.01-0.61c-1.63-4.31-3.27-8.61-4.91-12.91
		c-0.23-0.61-0.3-1.22,0.16-1.74c0.39-0.45,0.94-0.49,1.49-0.38c0.66,0.14,0.89,0.69,1.09,1.23c0.54,1.38,1.04,2.77,1.57,4.16
		c1.15,3.03,2.31,6.05,3.45,9.08C48.13,95.86,48.18,96.18,48.27,96.56z"/>
	<path class="st0" d="M13.84,96.43c0-4.63,0.02-9.26-0.01-13.89c-0.01-1.01,0.6-1.57,1.55-1.48c0.63,0.06,1.03,0.39,1.15,1.01
		c0.04,0.21,0.05,0.44,0.05,0.65c0,9.14,0,18.29,0,27.43c0,0.16,0,0.32-0.01,0.48c-0.1,0.84-0.59,1.25-1.46,1.21
		c-0.82-0.03-1.27-0.48-1.27-1.33c-0.01-2.3,0-4.59,0-6.89C13.84,101.22,13.84,98.82,13.84,96.43z"/>
	<path class="st0" d="M118.28,240.1c2.14,0.95,4.28,1.9,6.41,2.85c1.75-0.67,3.49-1.34,5.25-2.02c-0.4-1.64-0.77-3.27-1.17-4.88
		c-2.13-0.95-4.23-1.89-6.33-2.82c-0.01,0-0.01-0.02-0.02-0.03c0-0.01,0-0.02-0.01-0.06c2.46-0.95,4.93-1.89,7.38-2.84
		c0.96-1.63,1.91-3.23,2.89-4.88c-1.53-0.68-3.03-1.35-4.53-2.02c-2.47,0.95-4.93,1.89-7.47,2.87c1.4-2.36,2.76-4.65,4.11-6.93
		c-0.37-1.56-0.74-3.11-1.1-4.65c-0.02-0.07-0.06-0.14-0.09-0.22c-1.75,0.67-3.48,1.34-5.22,2.01c-1.35,2.28-2.71,4.56-4.06,6.84
		c0,0.01-0.02,0.01-0.03,0.01c-0.01,0-0.02,0-0.05,0c-0.38-1.59-0.76-3.18-1.15-4.81c-2.49,0.95-4.95,1.9-7.43,2.86
		c0.94,3.93,1.87,7.82,2.81,11.77c0.51-0.86,0.99-1.66,1.46-2.46c0.48-0.81,0.95-1.61,1.43-2.41c0.48-0.82,0.96-1.63,1.45-2.44
		c0.48-0.79,0.93-1.6,1.45-2.43c0.06,0.24,0.11,0.41,0.15,0.58c0.32,1.33,0.64,2.67,0.95,4c0.02,0.09,0.06,0.18,0.1,0.28
		c1.74-0.67,3.45-1.32,5.15-1.98c0.01,0.01,0.03,0.03,0.04,0.05c-0.95,1.6-1.89,3.2-2.85,4.82c0.52,0.23,1.01,0.45,1.51,0.67
		c0.5,0.23,1.01,0.45,1.51,0.68c0.49,0.22,0.98,0.41,1.51,0.69c-1.78,0.69-3.5,1.35-5.23,2.01c0.02,0.11,0.03,0.2,0.05,0.29
		c0.26,1.1,0.52,2.21,0.79,3.31C118.05,239.24,118.17,239.67,118.28,240.1c-0.06-0.02-0.13-0.04-0.19-0.07
		c-1.14-0.51-2.28-1.02-3.42-1.53c-0.32-0.14-0.64-0.28-0.97-0.42c-0.17,0.29-0.33,0.56-0.49,0.83c-0.74,1.24-1.47,2.48-2.21,3.72
		c-0.05,0.09-0.08,0.21-0.2,0.25c-0.01-0.01-0.02-0.02-0.02-0.03c-0.01-0.02-0.01-0.04-0.02-0.06c-0.75-3.16-1.51-6.32-2.27-9.48
		c0-0.01-0.01-0.01-0.02-0.02c-0.01,0-0.02,0-0.05-0.01c-2.3,3.89-4.61,7.78-6.94,11.7c2.14,0.96,4.27,1.9,6.41,2.86
		c0.96-1.62,1.91-3.22,2.91-4.9c0.29,1.23,0.56,2.38,0.84,3.52c0.28,1.15,0.53,2.3,0.82,3.42c1.53,0.68,3.02,1.34,4.53,2.01
		c0.97-1.64,1.94-3.27,2.9-4.89c-0.02-0.08-0.04-0.15-0.06-0.21c-0.47-1.96-0.94-3.91-1.4-5.87
		C118.37,240.66,118.33,240.38,118.28,240.1z"/>
</g>
<g>
	<path class="st0" d="M147.58,106.35c0,0.39,0,0.7,0,1.06c-2.51,0-5,0-7.52,0c0-0.34,0-0.65,0-1.06c0.48,0,0.95,0.02,1.42,0
		c0.78-0.03,1.16-0.36,1.15-1.14c-0.02-3.14,0-6.29-0.13-9.43c-0.1-2.33-1.83-2.91-3.82-2.11c-1.94,0.78-2.84,2.41-2.92,4.41
		c-0.1,2.39-0.03,4.78-0.02,7.17c0,0.81,0.25,1.07,1.05,1.11c0.5,0.03,1,0,1.53,0c0,0.39,0,0.7,0,1.06c-2.53,0-5.05,0-7.61,0
		c0-0.31,0-0.62,0-1.05c0.4,0,0.83,0.01,1.25,0c1.04-0.02,1.31-0.27,1.32-1.29c0.01-2.94,0.01-5.88-0.01-8.83
		c-0.01-1.55-0.74-2.69-1.83-2.85c-1.16-0.16-2.22,0.13-3.13,0.87c-1.33,1.09-1.9,2.54-1.93,4.21c-0.04,2.18-0.01,4.37-0.01,6.55
		c0,0.97,0.34,1.31,1.32,1.33c0.41,0.01,0.82,0,1.26,0c0,0.38,0,0.69,0,1.05c-2.51,0-5.03,0-7.54,0c-0.15-1.05-0.15-1.05,0.82-1.05
		c0.18,0,0.37,0.01,0.55,0c0.84-0.04,1.07-0.22,1.12-1.04c0.06-1.05,0.06-2.11,0.05-3.17c-0.01-2.3-0.01-4.59-0.07-6.89
		c-0.02-0.86-0.38-1.14-1.26-1.19c-0.41-0.02-0.81-0.06-1.2-0.09c-0.19-1.1-0.19-1.08,0.83-1.14c1.03-0.06,2.05-0.18,3.08-0.26
		c0.24-0.02,0.49,0,0.81,0c0,1.04,0,2.02,0,2.99c1.42-2.42,3.5-3.38,6.19-2.94c1.63,0.27,2.8,1.15,3.17,2.85
		c0.62-0.66,1.19-1.35,1.85-1.95c1.6-1.43,5.55-1.35,6.8,0.48c0.53,0.77,0.81,1.59,0.81,2.49c0.02,2.78,0.01,5.56,0.01,8.34
		c0,1.23,0.3,1.52,1.55,1.53C146.86,106.35,147.18,106.35,147.58,106.35z"/>
	<path class="st0" d="M111.79,107.9c-4.31-0.04-7.55-3.7-7.41-7.86c0.13-4.19,3.58-8.08,8.23-7.62c3.66,0.36,6.94,3.8,6.72,8.44
		C119.15,104.7,115.58,108.04,111.79,107.9z M116.55,100.04c-0.13-1.11-0.17-2.24-0.41-3.32c-0.44-2-2.21-3.42-4.05-3.5
		c-2.12-0.1-3.99,1.31-4.46,3.19c-0.61,2.43-0.59,4.9,0.01,7.32c0.45,1.84,2.08,3.07,3.99,3.23c1.67,0.14,3.3-0.84,4.12-2.5
		C116.43,103.07,116.46,101.56,116.55,100.04z"/>
	<path class="st0" d="M156.66,107.91c-4.26-0.09-7.52-3.49-7.46-7.74c0.06-4.19,3.51-8.14,8.12-7.75c3.58,0.3,7,3.64,6.85,8.33
		C164.04,104.6,160.53,107.99,156.66,107.91z M161.38,100.01c-0.13-1.09-0.18-2.19-0.4-3.25c-0.44-2.04-2.2-3.45-4.09-3.54
		c-2.14-0.1-4.15,1.49-4.47,3.43c-0.16,0.94-0.34,1.9-0.35,2.85c-0.02,1.73-0.06,3.48,0.77,5.09c0.79,1.53,2.08,2.36,3.8,2.38
		c1.74,0.03,3.03-0.8,3.86-2.34C161.26,103.17,161.28,101.6,161.38,100.01z"/>
	<path class="st0" d="M99.92,93.26c0.27-0.26,0.5-0.52,0.77-0.72c0.43-0.32,0.83-0.13,0.83,0.4c0.02,1.33,0.02,2.67-0.02,4
		c-0.01,0.19-0.29,0.37-0.45,0.56c-0.16-0.19-0.4-0.36-0.46-0.58c-0.13-0.43-0.11-0.9-0.23-1.34c-0.4-1.5-1.47-2.27-2.95-2.46
		c-1.03-0.13-2.05-0.03-3.02,0.41c-0.9,0.4-1.39,1.1-1.41,2.09c-0.02,0.97,0.52,1.62,1.38,1.91c1.16,0.39,2.35,0.69,3.55,0.95
		c1.55,0.34,2.88,1,3.76,2.36c1.73,2.7,0.19,6.28-2.96,6.87c-2,0.38-3.91,0.27-5.48-1.22c-0.63,0.46-0.81,1.44-1.89,1.34
		c0-1.1,0-2.17,0-3.25c0-0.71-0.03-1.43,0.02-2.14c0.01-0.24,0.17-0.62,0.34-0.67c0.44-0.12,0.51,0.25,0.62,0.61
		c0.23,0.78,0.48,1.56,0.8,2.31c1.16,2.73,4.46,2.8,6.25,1.8c0.96-0.53,1.33-1.44,1.32-2.46c-0.01-1.05-0.49-1.96-1.5-2.34
		c-1.14-0.43-2.34-0.71-3.52-1.01c-1.11-0.28-2.15-0.64-3.08-1.37c-1.69-1.35-1.67-4.5,0.1-5.78C94.67,92.1,97.32,91.99,99.92,93.26
		z"/>
	<path class="st0" d="M173.77,104.75c0.79-1.97,1.52-3.8,2.26-5.62c0.36-0.91,0.68-1.83,1.09-2.72c0.63-1.39-0.03-2.24-1.33-2.4
		c0-0.31,0-0.63,0-0.99c1.81,0,3.61,0,5.44,0c0,0.32,0,0.64,0,0.98c-0.28,0.05-0.56,0.11-0.84,0.16c-1.52,0.28-1.96,1.52-2.45,2.74
		c-1.35,3.4-2.73,6.79-4.1,10.19c-0.03,0.08-0.05,0.2-0.11,0.24c-0.25,0.19-0.51,0.48-0.77,0.49c-0.21,0.01-0.53-0.3-0.63-0.55
		c-0.94-2.24-1.84-4.5-2.75-6.75c-0.68-1.68-1.34-3.37-2.02-5.06c-0.49-1.21-0.79-1.4-2.11-1.41c-0.2,0-0.41,0-0.67,0
		c0-0.36,0-0.69,0-1.06c2.3,0,4.58,0,6.92,0c0,0.33,0,0.66,0,1.01c-0.37,0.04-0.73,0.05-1.08,0.14c-0.72,0.19-0.87,0.5-0.6,1.18
		C171.25,98.43,172.48,101.52,173.77,104.75z"/>
	<path class="st0" d="M82.11,93.95c-0.16-1.08-0.16-1.06,0.86-1.12c1-0.06,2.01-0.18,3.01-0.26c0.25-0.02,0.49,0,0.8,0
		c0,0.3,0,0.55,0,0.8c0,3.68,0,7.35,0,11.03c0,0.18-0.01,0.37,0,0.55c0.09,1.19,0.32,1.41,1.52,1.42c0.97,0.01,0.97,0.01,0.8,1.06
		c-2.35,0-4.71,0-7.11,0c0-0.34,0-0.66,0-1.06c0.47,0,0.93,0.01,1.38,0c0.65-0.02,1.11-0.26,1.13-0.99
		c0.02-0.57,0.06-1.14,0.06-1.72c0.01-2.37,0-4.73,0-7.1c0-0.09,0-0.18,0-0.28c-0.11-2-0.1-2.18-1.96-2.25
		C82.46,94.01,82.3,93.97,82.11,93.95z"/>
	<path class="st0" d="M85.14,84.97c1.1,0,1.81,0.68,1.84,1.76c0.02,1.03-0.75,1.82-1.78,1.83c-1.05,0.01-1.85-0.76-1.86-1.77
		C83.33,85.75,84.1,84.97,85.14,84.97z"/>
</g>
</svg>
